M48
; DRILL file {KiCad (6.0.4-0)} date 
; FORMAT={-:-/ absolute / metric / decimal}
; #@! TF.CreationDate,2022-07-13T22:21:12+09:00
; #@! TF.GenerationSoftware,Kicad,Pcbnew,(6.0.4-0)
; #@! TF.FileFunction,MixedPlating,1,2
FMAT,2
METRIC
; #@! TA.AperFunction,Plated,PTH,ViaDrill
T1C0.400
; #@! TA.AperFunction,Plated,PTH,ComponentDrill
T2C0.700
; #@! TA.AperFunction,Plated,PTH,ComponentDrill
T3C0.762
; #@! TA.AperFunction,Plated,PTH,ComponentDrill
T4C0.800
; #@! TA.AperFunction,Plated,PTH,ComponentDrill
T5C0.900
; #@! TA.AperFunction,Plated,PTH,ComponentDrill
T6C1.000
%
G90
G05
T1
X80.588Y-84.44
X80.688Y-93.8
X80.69Y-81.87
X80.772Y-139.7
X81.28Y-76.2
X81.28Y-107.95
X81.98Y-94.906
X83.82Y-140.673
X86.868Y-133.28
X86.868Y-134.62
X86.868Y-136.144
X86.879Y-137.344
X88.819Y-103.713
X90.195Y-142.519
X90.424Y-79.756
X90.424Y-123.444
X90.425Y-107.35
X92.456Y-140.97
X92.964Y-110.998
X94.4Y-79.7
X94.4Y-127.9
X96.52Y-115.316
X96.774Y-94.615
X97.75Y-70.45
X97.79Y-102.87
X99.0Y-108.0
X100.757Y-133.357
X101.092Y-129.032
X102.87Y-74.93
X104.14Y-111.76
X105.41Y-143.51
X105.664Y-116.948
X106.172Y-83.82
X106.172Y-123.952
X106.68Y-97.409
X106.68Y-126.492
X109.7Y-119.347
X109.728Y-123.952
X109.728Y-142.748
X110.0Y-138.0
X113.284Y-137.16
X113.284Y-138.684
X113.919Y-76.962
X115.0Y-131.0
X116.25Y-114.45
X117.0Y-109.0
X117.4Y-131.2
X118.0Y-97.0
X118.364Y-140.208
X119.0Y-105.0
X119.253Y-74.549
X120.904Y-126.492
X122.936Y-138.176
X123.952Y-136.976
X124.0Y-73.0
X124.0Y-96.0
X124.968Y-129.54
X127.0Y-128.016
X127.0Y-138.176
X128.0Y-109.0
X129.54Y-77.47
X129.54Y-138.303
X130.0Y-112.8
X130.81Y-129.54
X132.08Y-96.52
X132.08Y-138.43
X133.096Y-93.98
X134.62Y-123.19
X140.97Y-82.55
X141.0Y-133.35
X143.51Y-125.73
X147.32Y-86.36
X147.574Y-76.2
X152.146Y-141.986
X153.162Y-67.437
T2
X91.23Y-127.845
X96.73Y-127.845
X113.657Y-99.255
X113.657Y-100.525
X113.657Y-101.795
X113.657Y-103.065
X113.657Y-104.335
X113.657Y-105.605
X113.657Y-106.875
X113.657Y-108.145
X113.657Y-109.415
X113.657Y-110.685
X113.657Y-111.955
X113.657Y-113.225
X113.657Y-114.495
X133.157Y-99.255
X133.157Y-100.525
X133.157Y-101.795
X133.157Y-103.065
X133.157Y-104.335
X133.157Y-105.605
X133.157Y-106.875
X133.157Y-108.145
X133.157Y-109.415
X133.157Y-110.685
X133.157Y-111.955
X133.157Y-113.225
X133.157Y-114.495
T3
X92.87Y-93.218
X92.87Y-95.758
X92.87Y-98.298
X92.87Y-100.838
X92.87Y-103.378
X92.87Y-105.918
X98.278Y-66.147
X100.818Y-66.147
X110.33Y-95.758
X110.33Y-98.298
X110.33Y-100.838
X110.33Y-103.378
X112.9Y-123.325
X112.9Y-135.475
X115.44Y-123.325
X115.44Y-135.475
X117.98Y-123.325
X117.98Y-135.475
X120.52Y-123.325
X120.52Y-135.475
X123.06Y-123.325
X123.06Y-135.475
X125.6Y-123.325
X125.6Y-135.475
X128.14Y-123.325
X128.14Y-135.475
X130.68Y-123.325
X130.68Y-135.475
X137.668Y-101.092
X140.208Y-101.092
X142.748Y-101.092
X145.288Y-101.092
X147.828Y-101.092
T4
X99.06Y-125.984
X99.06Y-129.54
X102.616Y-99.797
X102.616Y-102.297
X109.031Y-74.168
X109.22Y-125.984
X109.22Y-129.54
X111.531Y-74.168
X116.84Y-90.424
X119.77Y-120.05
X121.92Y-75.0
X121.92Y-78.0
X121.92Y-81.0
X124.0Y-106.205
X124.0Y-108.705
X127.0Y-90.424
X129.93Y-120.05
X132.08Y-75.0
X132.08Y-78.0
X132.08Y-81.0
X134.605Y-136.1
X135.72Y-128.7
X137.105Y-136.1
X140.716Y-110.047
X140.716Y-112.547
X145.88Y-128.7
X147.32Y-110.047
X147.32Y-112.547
X149.805Y-131.2
X152.305Y-131.2
T5
X93.98Y-141.732
X96.52Y-141.732
X97.7Y-73.35
X97.7Y-83.35
X99.06Y-141.732
X101.6Y-141.732
X104.14Y-141.732
X106.68Y-141.732
X113.975Y-141.732
X116.2Y-73.35
X116.2Y-83.35
X116.515Y-141.732
X118.344Y-66.655
X119.055Y-141.732
X120.884Y-66.655
X121.595Y-141.732
X124.135Y-141.732
X125.476Y-68.58
X126.675Y-141.732
X128.016Y-68.58
X132.08Y-68.58
X134.62Y-68.58
X138.689Y-68.58
X140.76Y-119.15
X141.229Y-68.58
X143.3Y-119.15
X145.84Y-119.15
X152.4Y-118.237
X152.4Y-120.777
X153.1Y-80.595
X153.1Y-83.135
X153.1Y-85.675
X153.1Y-88.215
X153.1Y-90.755
T6
X84.729Y-76.026
X84.729Y-78.566
X84.729Y-81.106
X84.729Y-83.646
X84.729Y-86.186
X84.729Y-88.726
X84.729Y-91.266
X84.729Y-93.806
X84.729Y-96.346
X84.729Y-98.886
X84.729Y-101.426
X84.729Y-103.966
X84.729Y-106.506
X84.729Y-109.046
X84.729Y-111.586
X84.729Y-114.126
X84.729Y-116.666
X84.729Y-119.206
X84.729Y-121.746
X84.729Y-124.286
X87.269Y-76.026
X87.269Y-78.566
X87.269Y-81.106
X87.269Y-83.646
X87.269Y-86.186
X87.269Y-88.726
X87.269Y-91.266
X87.269Y-93.806
X87.269Y-96.346
X87.269Y-98.886
X87.269Y-101.426
X87.269Y-103.966
X87.269Y-106.506
X87.269Y-109.046
X87.269Y-111.586
X87.269Y-114.126
X87.269Y-116.666
X87.269Y-119.206
X87.269Y-121.746
X87.269Y-124.286
X106.665Y-66.777
X109.205Y-66.777
X111.745Y-66.777
X134.62Y-141.7
X137.16Y-141.7
X139.7Y-141.7
T0
M30
