%TF.GenerationSoftware,KiCad,Pcbnew,(6.0.4-0)*%
%TF.CreationDate,2022-07-13T22:20:57+09:00*%
%TF.ProjectId,2022-circuit,32303232-2d63-4697-9263-7569742e6b69,rev?*%
%TF.SameCoordinates,Original*%
%TF.FileFunction,Soldermask,Bot*%
%TF.FilePolarity,Negative*%
%FSLAX46Y46*%
G04 Gerber Fmt 4.6, Leading zero omitted, Abs format (unit mm)*
G04 Created by KiCad (PCBNEW (6.0.4-0)) date 2022-07-13 22:20:57*
%MOMM*%
%LPD*%
G01*
G04 APERTURE LIST*
G04 Aperture macros list*
%AMRoundRect*
0 Rectangle with rounded corners*
0 $1 Rounding radius*
0 $2 $3 $4 $5 $6 $7 $8 $9 X,Y pos of 4 corners*
0 Add a 4 corners polygon primitive as box body*
4,1,4,$2,$3,$4,$5,$6,$7,$8,$9,$2,$3,0*
0 Add four circle primitives for the rounded corners*
1,1,$1+$1,$2,$3*
1,1,$1+$1,$4,$5*
1,1,$1+$1,$6,$7*
1,1,$1+$1,$8,$9*
0 Add four rect primitives between the rounded corners*
20,1,$1+$1,$2,$3,$4,$5,0*
20,1,$1+$1,$4,$5,$6,$7,0*
20,1,$1+$1,$6,$7,$8,$9,0*
20,1,$1+$1,$8,$9,$2,$3,0*%
G04 Aperture macros list end*
%ADD10C,1.800000*%
%ADD11O,1.800000X1.800000*%
%ADD12RoundRect,0.100000X0.800000X-0.800000X0.800000X0.800000X-0.800000X0.800000X-0.800000X-0.800000X0*%
%ADD13RoundRect,0.100000X-0.800000X0.800000X-0.800000X-0.800000X0.800000X-0.800000X0.800000X0.800000X0*%
%ADD14RoundRect,0.100000X-0.800000X-0.800000X0.800000X-0.800000X0.800000X0.800000X-0.800000X0.800000X0*%
%ADD15RoundRect,0.100000X0.800000X0.800000X-0.800000X0.800000X-0.800000X-0.800000X0.800000X-0.800000X0*%
%ADD16RoundRect,0.100000X0.900000X0.900000X-0.900000X0.900000X-0.900000X-0.900000X0.900000X-0.900000X0*%
%ADD17C,2.000000*%
%ADD18C,1.300000*%
%ADD19C,1.724000*%
%ADD20RoundRect,0.100000X0.850000X0.850000X-0.850000X0.850000X-0.850000X-0.850000X0.850000X-0.850000X0*%
%ADD21O,1.900000X1.900000*%
%ADD22RoundRect,0.100000X0.850000X-0.850000X0.850000X0.850000X-0.850000X0.850000X-0.850000X-0.850000X0*%
%ADD23RoundRect,0.100000X0.762000X0.762000X-0.762000X0.762000X-0.762000X-0.762000X0.762000X-0.762000X0*%
%ADD24RoundRect,0.100000X-0.762000X0.762000X-0.762000X-0.762000X0.762000X-0.762000X0.762000X0.762000X0*%
%ADD25RoundRect,0.100000X-0.850000X0.850000X-0.850000X-0.850000X0.850000X-0.850000X0.850000X0.850000X0*%
G04 APERTURE END LIST*
D10*
%TO.C,R2*%
X109220000Y-125984000D03*
D11*
X99060000Y-125984000D03*
%TD*%
D12*
%TO.C,C3*%
X102616000Y-102297113D03*
D10*
X102616000Y-99797113D03*
%TD*%
%TO.C,R4*%
X132080000Y-78000000D03*
D11*
X121920000Y-78000000D03*
%TD*%
D10*
%TO.C,R3*%
X132080000Y-81000000D03*
D11*
X121920000Y-81000000D03*
%TD*%
D13*
%TO.C,C1*%
X147320000Y-110046888D03*
D10*
X147320000Y-112546888D03*
%TD*%
%TO.C,R8*%
X127000000Y-90424000D03*
D11*
X116840000Y-90424000D03*
%TD*%
D12*
%TO.C,C6*%
X124000000Y-108705113D03*
D10*
X124000000Y-106205113D03*
%TD*%
D14*
%TO.C,C7*%
X109030888Y-74168000D03*
D10*
X111530888Y-74168000D03*
%TD*%
%TO.C,R1*%
X99060000Y-129540000D03*
D11*
X109220000Y-129540000D03*
%TD*%
D13*
%TO.C,C2*%
X140716000Y-110046888D03*
D10*
X140716000Y-112546888D03*
%TD*%
%TO.C,R5*%
X132080000Y-75000000D03*
D11*
X121920000Y-75000000D03*
%TD*%
D15*
%TO.C,C4*%
X137105113Y-136100000D03*
D10*
X134605113Y-136100000D03*
%TD*%
D16*
%TO.C,D2*%
X134620000Y-68580000D03*
D17*
X132080000Y-68580000D03*
%TD*%
D18*
%TO.C,SW3*%
X91230000Y-127845000D03*
X96730000Y-127845000D03*
%TD*%
D19*
%TO.C,U8*%
X147828000Y-101092000D03*
X145288000Y-101092000D03*
X142748000Y-101092000D03*
X140208000Y-101092000D03*
X137668000Y-101092000D03*
%TD*%
D15*
%TO.C,C5*%
X152305113Y-131200000D03*
D10*
X149805113Y-131200000D03*
%TD*%
D20*
%TO.C,U6*%
X84729200Y-76026200D03*
D21*
X87269200Y-76026200D03*
X84729200Y-78566200D03*
X87269200Y-78566200D03*
X84729200Y-81106200D03*
X87269200Y-81106200D03*
X84729200Y-83646200D03*
X87269200Y-83646200D03*
X84729200Y-86186200D03*
X87269200Y-86186200D03*
X84729200Y-88726200D03*
X87269200Y-88726200D03*
X84729200Y-91266200D03*
X87269200Y-91266200D03*
X84729200Y-93806200D03*
X87269200Y-93806200D03*
X84729200Y-96346200D03*
X87269200Y-96346200D03*
X84729200Y-98886200D03*
X87269200Y-98886200D03*
X84729200Y-101426200D03*
X87269200Y-101426200D03*
X84729200Y-103966200D03*
X87269200Y-103966200D03*
X84729200Y-106506200D03*
X87269200Y-106506200D03*
X84729200Y-109046200D03*
X87269200Y-109046200D03*
X84729200Y-111586200D03*
X87269200Y-111586200D03*
X84729200Y-114126200D03*
X87269200Y-114126200D03*
X84729200Y-116666200D03*
X87269200Y-116666200D03*
X84729200Y-119206200D03*
X87269200Y-119206200D03*
X84729200Y-121746200D03*
X87269200Y-121746200D03*
X84729200Y-124286200D03*
X87269200Y-124286200D03*
%TD*%
D19*
%TO.C,U4*%
X130680000Y-135475000D03*
X128140000Y-135475000D03*
X125600000Y-135475000D03*
X123060000Y-135475000D03*
X120520000Y-135475000D03*
X117980000Y-135475000D03*
X115440000Y-135475000D03*
X112900000Y-135475000D03*
X130680000Y-123325000D03*
X128140000Y-123325000D03*
X125600000Y-123325000D03*
X123060000Y-123325000D03*
X120520000Y-123325000D03*
X117980000Y-123325000D03*
X115440000Y-123325000D03*
X112900000Y-123325000D03*
%TD*%
D22*
%TO.C,SW2*%
X111745000Y-66777000D03*
D21*
X109205000Y-66777000D03*
X106665000Y-66777000D03*
%TD*%
D19*
%TO.C,BT1*%
X98278000Y-66147000D03*
X100818000Y-66147000D03*
%TD*%
%TO.C,Q1*%
X145840000Y-119150000D03*
D23*
X143300000Y-119150000D03*
D19*
X140760000Y-119150000D03*
%TD*%
%TO.C,BT2*%
X118344000Y-66655000D03*
X120884000Y-66655000D03*
%TD*%
%TO.C,S1*%
X152400000Y-118237000D03*
D24*
X152400000Y-120777000D03*
%TD*%
D19*
%TO.C,U3*%
X92870000Y-105918000D03*
X92870000Y-103378000D03*
X92870000Y-100838000D03*
X92870000Y-98298000D03*
X92870000Y-95758000D03*
X92870000Y-93218000D03*
X110330000Y-103378000D03*
X110330000Y-100838000D03*
X110330000Y-98298000D03*
X110330000Y-95758000D03*
%TD*%
%TO.C,U2*%
X97700000Y-73350000D03*
X97700000Y-83350000D03*
X116200000Y-73350000D03*
X116200000Y-83350000D03*
%TD*%
%TO.C,U9*%
X113975000Y-141732000D03*
X116515000Y-141732000D03*
X119055000Y-141732000D03*
X121595000Y-141732000D03*
X124135000Y-141732000D03*
X126675000Y-141732000D03*
%TD*%
D25*
%TO.C,SW1*%
X134620000Y-141700000D03*
D21*
X137160000Y-141700000D03*
X139700000Y-141700000D03*
%TD*%
D16*
%TO.C,D1*%
X141229000Y-68580000D03*
D17*
X138689000Y-68580000D03*
%TD*%
D16*
%TO.C,D3*%
X128016000Y-68580000D03*
D17*
X125476000Y-68580000D03*
%TD*%
D10*
%TO.C,R6*%
X129930000Y-120050000D03*
D11*
X119770000Y-120050000D03*
%TD*%
D19*
%TO.C,U7*%
X153100000Y-80595000D03*
X153100000Y-83135000D03*
X153100000Y-85675000D03*
X153100000Y-88215000D03*
X153100000Y-90755000D03*
%TD*%
D10*
%TO.C,R7*%
X135720000Y-128700000D03*
D11*
X145880000Y-128700000D03*
%TD*%
D18*
%TO.C,U5*%
X133157000Y-99255000D03*
X133157000Y-100525000D03*
X133157000Y-101795000D03*
X133157000Y-103065000D03*
X133157000Y-104335000D03*
X133157000Y-105605000D03*
X133157000Y-106875000D03*
X133157000Y-108145000D03*
X133157000Y-109415000D03*
X133157000Y-110685000D03*
X133157000Y-111955000D03*
X133157000Y-113225000D03*
X133157000Y-114495000D03*
X113657000Y-114495000D03*
X113657000Y-113225000D03*
X113657000Y-111955000D03*
X113657000Y-110685000D03*
X113657000Y-109415000D03*
X113657000Y-108145000D03*
X113657000Y-106875000D03*
X113657000Y-105605000D03*
X113657000Y-104335000D03*
X113657000Y-103065000D03*
X113657000Y-101795000D03*
X113657000Y-100525000D03*
X113657000Y-99255000D03*
%TD*%
D19*
%TO.C,U1*%
X93980000Y-141732000D03*
X96520000Y-141732000D03*
X99060000Y-141732000D03*
X101600000Y-141732000D03*
X104140000Y-141732000D03*
X106680000Y-141732000D03*
%TD*%
M02*
