%TF.GenerationSoftware,KiCad,Pcbnew,(6.0.4-0)*%
%TF.CreationDate,2022-07-13T22:20:56+09:00*%
%TF.ProjectId,2022-circuit,32303232-2d63-4697-9263-7569742e6b69,rev?*%
%TF.SameCoordinates,Original*%
%TF.FileFunction,Legend,Bot*%
%TF.FilePolarity,Positive*%
%FSLAX46Y46*%
G04 Gerber Fmt 4.6, Leading zero omitted, Abs format (unit mm)*
G04 Created by KiCad (PCBNEW (6.0.4-0)) date 2022-07-13 22:20:56*
%MOMM*%
%LPD*%
G01*
G04 APERTURE LIST*
G04 Aperture macros list*
%AMRoundRect*
0 Rectangle with rounded corners*
0 $1 Rounding radius*
0 $2 $3 $4 $5 $6 $7 $8 $9 X,Y pos of 4 corners*
0 Add a 4 corners polygon primitive as box body*
4,1,4,$2,$3,$4,$5,$6,$7,$8,$9,$2,$3,0*
0 Add four circle primitives for the rounded corners*
1,1,$1+$1,$2,$3*
1,1,$1+$1,$4,$5*
1,1,$1+$1,$6,$7*
1,1,$1+$1,$8,$9*
0 Add four rect primitives between the rounded corners*
20,1,$1+$1,$2,$3,$4,$5,0*
20,1,$1+$1,$4,$5,$6,$7,0*
20,1,$1+$1,$6,$7,$8,$9,0*
20,1,$1+$1,$8,$9,$2,$3,0*%
G04 Aperture macros list end*
%ADD10C,0.150000*%
%ADD11C,0.120000*%
%ADD12C,1.800000*%
%ADD13O,1.800000X1.800000*%
%ADD14RoundRect,0.100000X0.800000X-0.800000X0.800000X0.800000X-0.800000X0.800000X-0.800000X-0.800000X0*%
%ADD15RoundRect,0.100000X-0.800000X0.800000X-0.800000X-0.800000X0.800000X-0.800000X0.800000X0.800000X0*%
%ADD16RoundRect,0.100000X-0.800000X-0.800000X0.800000X-0.800000X0.800000X0.800000X-0.800000X0.800000X0*%
%ADD17RoundRect,0.100000X0.800000X0.800000X-0.800000X0.800000X-0.800000X-0.800000X0.800000X-0.800000X0*%
%ADD18RoundRect,0.100000X0.900000X0.900000X-0.900000X0.900000X-0.900000X-0.900000X0.900000X-0.900000X0*%
%ADD19C,2.000000*%
%ADD20C,1.300000*%
%ADD21C,1.724000*%
%ADD22RoundRect,0.100000X0.850000X0.850000X-0.850000X0.850000X-0.850000X-0.850000X0.850000X-0.850000X0*%
%ADD23O,1.900000X1.900000*%
%ADD24RoundRect,0.100000X0.850000X-0.850000X0.850000X0.850000X-0.850000X0.850000X-0.850000X-0.850000X0*%
%ADD25RoundRect,0.100000X0.762000X0.762000X-0.762000X0.762000X-0.762000X-0.762000X0.762000X-0.762000X0*%
%ADD26RoundRect,0.100000X-0.762000X0.762000X-0.762000X-0.762000X0.762000X-0.762000X0.762000X0.762000X0*%
%ADD27RoundRect,0.100000X-0.850000X0.850000X-0.850000X-0.850000X0.850000X-0.850000X0.850000X0.850000X0*%
G04 APERTURE END LIST*
D10*
%TO.C,C4*%
X138342666Y-132707142D02*
X138390285Y-132754761D01*
X138533142Y-132802380D01*
X138628380Y-132802380D01*
X138771238Y-132754761D01*
X138866476Y-132659523D01*
X138914095Y-132564285D01*
X138961714Y-132373809D01*
X138961714Y-132230952D01*
X138914095Y-132040476D01*
X138866476Y-131945238D01*
X138771238Y-131850000D01*
X138628380Y-131802380D01*
X138533142Y-131802380D01*
X138390285Y-131850000D01*
X138342666Y-131897619D01*
X137485523Y-132135714D02*
X137485523Y-132802380D01*
X137723619Y-131754761D02*
X137961714Y-132469047D01*
X137342666Y-132469047D01*
%TO.C,D2*%
X137512095Y-71572380D02*
X137512095Y-70572380D01*
X137274000Y-70572380D01*
X137131142Y-70620000D01*
X137035904Y-70715238D01*
X136988285Y-70810476D01*
X136940666Y-71000952D01*
X136940666Y-71143809D01*
X136988285Y-71334285D01*
X137035904Y-71429523D01*
X137131142Y-71524761D01*
X137274000Y-71572380D01*
X137512095Y-71572380D01*
X136559714Y-70667619D02*
X136512095Y-70620000D01*
X136416857Y-70572380D01*
X136178761Y-70572380D01*
X136083523Y-70620000D01*
X136035904Y-70667619D01*
X135988285Y-70762857D01*
X135988285Y-70858095D01*
X136035904Y-71000952D01*
X136607333Y-71572380D01*
X135988285Y-71572380D01*
%TO.C,SW3*%
X96837333Y-123848761D02*
X96694476Y-123896380D01*
X96456380Y-123896380D01*
X96361142Y-123848761D01*
X96313523Y-123801142D01*
X96265904Y-123705904D01*
X96265904Y-123610666D01*
X96313523Y-123515428D01*
X96361142Y-123467809D01*
X96456380Y-123420190D01*
X96646857Y-123372571D01*
X96742095Y-123324952D01*
X96789714Y-123277333D01*
X96837333Y-123182095D01*
X96837333Y-123086857D01*
X96789714Y-122991619D01*
X96742095Y-122944000D01*
X96646857Y-122896380D01*
X96408761Y-122896380D01*
X96265904Y-122944000D01*
X95932571Y-122896380D02*
X95694476Y-123896380D01*
X95504000Y-123182095D01*
X95313523Y-123896380D01*
X95075428Y-122896380D01*
X94789714Y-122896380D02*
X94170666Y-122896380D01*
X94504000Y-123277333D01*
X94361142Y-123277333D01*
X94265904Y-123324952D01*
X94218285Y-123372571D01*
X94170666Y-123467809D01*
X94170666Y-123705904D01*
X94218285Y-123801142D01*
X94265904Y-123848761D01*
X94361142Y-123896380D01*
X94646857Y-123896380D01*
X94742095Y-123848761D01*
X94789714Y-123801142D01*
%TO.C,U8*%
X143509904Y-104100380D02*
X143509904Y-104909904D01*
X143462285Y-105005142D01*
X143414666Y-105052761D01*
X143319428Y-105100380D01*
X143128952Y-105100380D01*
X143033714Y-105052761D01*
X142986095Y-105005142D01*
X142938476Y-104909904D01*
X142938476Y-104100380D01*
X142319428Y-104528952D02*
X142414666Y-104481333D01*
X142462285Y-104433714D01*
X142509904Y-104338476D01*
X142509904Y-104290857D01*
X142462285Y-104195619D01*
X142414666Y-104148000D01*
X142319428Y-104100380D01*
X142128952Y-104100380D01*
X142033714Y-104148000D01*
X141986095Y-104195619D01*
X141938476Y-104290857D01*
X141938476Y-104338476D01*
X141986095Y-104433714D01*
X142033714Y-104481333D01*
X142128952Y-104528952D01*
X142319428Y-104528952D01*
X142414666Y-104576571D01*
X142462285Y-104624190D01*
X142509904Y-104719428D01*
X142509904Y-104909904D01*
X142462285Y-105005142D01*
X142414666Y-105052761D01*
X142319428Y-105100380D01*
X142128952Y-105100380D01*
X142033714Y-105052761D01*
X141986095Y-105005142D01*
X141938476Y-104909904D01*
X141938476Y-104719428D01*
X141986095Y-104624190D01*
X142033714Y-104576571D01*
X142128952Y-104528952D01*
%TO.C,C5*%
X152566666Y-127865142D02*
X152614285Y-127912761D01*
X152757142Y-127960380D01*
X152852380Y-127960380D01*
X152995238Y-127912761D01*
X153090476Y-127817523D01*
X153138095Y-127722285D01*
X153185714Y-127531809D01*
X153185714Y-127388952D01*
X153138095Y-127198476D01*
X153090476Y-127103238D01*
X152995238Y-127008000D01*
X152852380Y-126960380D01*
X152757142Y-126960380D01*
X152614285Y-127008000D01*
X152566666Y-127055619D01*
X151661904Y-126960380D02*
X152138095Y-126960380D01*
X152185714Y-127436571D01*
X152138095Y-127388952D01*
X152042857Y-127341333D01*
X151804761Y-127341333D01*
X151709523Y-127388952D01*
X151661904Y-127436571D01*
X151614285Y-127531809D01*
X151614285Y-127769904D01*
X151661904Y-127865142D01*
X151709523Y-127912761D01*
X151804761Y-127960380D01*
X152042857Y-127960380D01*
X152138095Y-127912761D01*
X152185714Y-127865142D01*
%TO.C,U6*%
X59751104Y-58278580D02*
X59751104Y-59088104D01*
X59703485Y-59183342D01*
X59655866Y-59230961D01*
X59560628Y-59278580D01*
X59370152Y-59278580D01*
X59274914Y-59230961D01*
X59227295Y-59183342D01*
X59179676Y-59088104D01*
X59179676Y-58278580D01*
X58274914Y-58278580D02*
X58465390Y-58278580D01*
X58560628Y-58326200D01*
X58608247Y-58373819D01*
X58703485Y-58516676D01*
X58751104Y-58707152D01*
X58751104Y-59088104D01*
X58703485Y-59183342D01*
X58655866Y-59230961D01*
X58560628Y-59278580D01*
X58370152Y-59278580D01*
X58274914Y-59230961D01*
X58227295Y-59183342D01*
X58179676Y-59088104D01*
X58179676Y-58850009D01*
X58227295Y-58754771D01*
X58274914Y-58707152D01*
X58370152Y-58659533D01*
X58560628Y-58659533D01*
X58655866Y-58707152D01*
X58703485Y-58754771D01*
X58751104Y-58850009D01*
X57126095Y-73604380D02*
X57126095Y-72604380D01*
X56745142Y-72604380D01*
X56649904Y-72652000D01*
X56602285Y-72699619D01*
X56554666Y-72794857D01*
X56554666Y-72937714D01*
X56602285Y-73032952D01*
X56649904Y-73080571D01*
X56745142Y-73128190D01*
X57126095Y-73128190D01*
X55602285Y-73604380D02*
X56173714Y-73604380D01*
X55888000Y-73604380D02*
X55888000Y-72604380D01*
X55983238Y-72747238D01*
X56078476Y-72842476D01*
X56173714Y-72890095D01*
%TO.C,U4*%
X132548380Y-128270095D02*
X133357904Y-128270095D01*
X133453142Y-128317714D01*
X133500761Y-128365333D01*
X133548380Y-128460571D01*
X133548380Y-128651047D01*
X133500761Y-128746285D01*
X133453142Y-128793904D01*
X133357904Y-128841523D01*
X132548380Y-128841523D01*
X132881714Y-129746285D02*
X133548380Y-129746285D01*
X132500761Y-129508190D02*
X133215047Y-129270095D01*
X133215047Y-129889142D01*
%TO.C,SW2*%
X115197761Y-65443666D02*
X115245380Y-65586523D01*
X115245380Y-65824619D01*
X115197761Y-65919857D01*
X115150142Y-65967476D01*
X115054904Y-66015095D01*
X114959666Y-66015095D01*
X114864428Y-65967476D01*
X114816809Y-65919857D01*
X114769190Y-65824619D01*
X114721571Y-65634142D01*
X114673952Y-65538904D01*
X114626333Y-65491285D01*
X114531095Y-65443666D01*
X114435857Y-65443666D01*
X114340619Y-65491285D01*
X114293000Y-65538904D01*
X114245380Y-65634142D01*
X114245380Y-65872238D01*
X114293000Y-66015095D01*
X114245380Y-66348428D02*
X115245380Y-66586523D01*
X114531095Y-66777000D01*
X115245380Y-66967476D01*
X114245380Y-67205571D01*
X114340619Y-67538904D02*
X114293000Y-67586523D01*
X114245380Y-67681761D01*
X114245380Y-67919857D01*
X114293000Y-68015095D01*
X114340619Y-68062714D01*
X114435857Y-68110333D01*
X114531095Y-68110333D01*
X114673952Y-68062714D01*
X115245380Y-67491285D01*
X115245380Y-68110333D01*
%TO.C,BT1*%
X101853714Y-69575571D02*
X101710857Y-69623190D01*
X101663238Y-69670809D01*
X101615619Y-69766047D01*
X101615619Y-69908904D01*
X101663238Y-70004142D01*
X101710857Y-70051761D01*
X101806095Y-70099380D01*
X102187047Y-70099380D01*
X102187047Y-69099380D01*
X101853714Y-69099380D01*
X101758476Y-69147000D01*
X101710857Y-69194619D01*
X101663238Y-69289857D01*
X101663238Y-69385095D01*
X101710857Y-69480333D01*
X101758476Y-69527952D01*
X101853714Y-69575571D01*
X102187047Y-69575571D01*
X101329904Y-69099380D02*
X100758476Y-69099380D01*
X101044190Y-70099380D02*
X101044190Y-69099380D01*
X99901333Y-70099380D02*
X100472761Y-70099380D01*
X100187047Y-70099380D02*
X100187047Y-69099380D01*
X100282285Y-69242238D01*
X100377523Y-69337476D01*
X100472761Y-69385095D01*
%TO.C,Q1*%
X143395238Y-116027619D02*
X143490476Y-115980000D01*
X143585714Y-115884761D01*
X143728571Y-115741904D01*
X143823809Y-115694285D01*
X143919047Y-115694285D01*
X143871428Y-115932380D02*
X143966666Y-115884761D01*
X144061904Y-115789523D01*
X144109523Y-115599047D01*
X144109523Y-115265714D01*
X144061904Y-115075238D01*
X143966666Y-114980000D01*
X143871428Y-114932380D01*
X143680952Y-114932380D01*
X143585714Y-114980000D01*
X143490476Y-115075238D01*
X143442857Y-115265714D01*
X143442857Y-115599047D01*
X143490476Y-115789523D01*
X143585714Y-115884761D01*
X143680952Y-115932380D01*
X143871428Y-115932380D01*
X142490476Y-115932380D02*
X143061904Y-115932380D01*
X142776190Y-115932380D02*
X142776190Y-114932380D01*
X142871428Y-115075238D01*
X142966666Y-115170476D01*
X143061904Y-115218095D01*
%TO.C,BT2*%
X124483714Y-69524571D02*
X124340857Y-69572190D01*
X124293238Y-69619809D01*
X124245619Y-69715047D01*
X124245619Y-69857904D01*
X124293238Y-69953142D01*
X124340857Y-70000761D01*
X124436095Y-70048380D01*
X124817047Y-70048380D01*
X124817047Y-69048380D01*
X124483714Y-69048380D01*
X124388476Y-69096000D01*
X124340857Y-69143619D01*
X124293238Y-69238857D01*
X124293238Y-69334095D01*
X124340857Y-69429333D01*
X124388476Y-69476952D01*
X124483714Y-69524571D01*
X124817047Y-69524571D01*
X123959904Y-69048380D02*
X123388476Y-69048380D01*
X123674190Y-70048380D02*
X123674190Y-69048380D01*
X123102761Y-69143619D02*
X123055142Y-69096000D01*
X122959904Y-69048380D01*
X122721809Y-69048380D01*
X122626571Y-69096000D01*
X122578952Y-69143619D01*
X122531333Y-69238857D01*
X122531333Y-69334095D01*
X122578952Y-69476952D01*
X123150380Y-70048380D01*
X122531333Y-70048380D01*
%TO.C,S1*%
X153187761Y-122789095D02*
X153235380Y-122931952D01*
X153235380Y-123170047D01*
X153187761Y-123265285D01*
X153140142Y-123312904D01*
X153044904Y-123360523D01*
X152949666Y-123360523D01*
X152854428Y-123312904D01*
X152806809Y-123265285D01*
X152759190Y-123170047D01*
X152711571Y-122979571D01*
X152663952Y-122884333D01*
X152616333Y-122836714D01*
X152521095Y-122789095D01*
X152425857Y-122789095D01*
X152330619Y-122836714D01*
X152283000Y-122884333D01*
X152235380Y-122979571D01*
X152235380Y-123217666D01*
X152283000Y-123360523D01*
X153235380Y-124312904D02*
X153235380Y-123741476D01*
X153235380Y-124027190D02*
X152235380Y-124027190D01*
X152378238Y-123931952D01*
X152473476Y-123836714D01*
X152521095Y-123741476D01*
%TO.C,U3*%
X102361904Y-109452380D02*
X102361904Y-110261904D01*
X102314285Y-110357142D01*
X102266666Y-110404761D01*
X102171428Y-110452380D01*
X101980952Y-110452380D01*
X101885714Y-110404761D01*
X101838095Y-110357142D01*
X101790476Y-110261904D01*
X101790476Y-109452380D01*
X101409523Y-109452380D02*
X100790476Y-109452380D01*
X101123809Y-109833333D01*
X100980952Y-109833333D01*
X100885714Y-109880952D01*
X100838095Y-109928571D01*
X100790476Y-110023809D01*
X100790476Y-110261904D01*
X100838095Y-110357142D01*
X100885714Y-110404761D01*
X100980952Y-110452380D01*
X101266666Y-110452380D01*
X101361904Y-110404761D01*
X101409523Y-110357142D01*
%TO.C,U2*%
X107712095Y-78897619D02*
X107712095Y-78088095D01*
X107759714Y-77992857D01*
X107807333Y-77945238D01*
X107902571Y-77897619D01*
X108093047Y-77897619D01*
X108188285Y-77945238D01*
X108235904Y-77992857D01*
X108283523Y-78088095D01*
X108283523Y-78897619D01*
X108712095Y-78802380D02*
X108759714Y-78850000D01*
X108854952Y-78897619D01*
X109093047Y-78897619D01*
X109188285Y-78850000D01*
X109235904Y-78802380D01*
X109283523Y-78707142D01*
X109283523Y-78611904D01*
X109235904Y-78469047D01*
X108664476Y-77897619D01*
X109283523Y-77897619D01*
%TO.C,U9*%
X107656380Y-142970095D02*
X108465904Y-142970095D01*
X108561142Y-143017714D01*
X108608761Y-143065333D01*
X108656380Y-143160571D01*
X108656380Y-143351047D01*
X108608761Y-143446285D01*
X108561142Y-143493904D01*
X108465904Y-143541523D01*
X107656380Y-143541523D01*
X108656380Y-144065333D02*
X108656380Y-144255809D01*
X108608761Y-144351047D01*
X108561142Y-144398666D01*
X108418285Y-144493904D01*
X108227809Y-144541523D01*
X107846857Y-144541523D01*
X107751619Y-144493904D01*
X107704000Y-144446285D01*
X107656380Y-144351047D01*
X107656380Y-144160571D01*
X107704000Y-144065333D01*
X107751619Y-144017714D01*
X107846857Y-143970095D01*
X108084952Y-143970095D01*
X108180190Y-144017714D01*
X108227809Y-144065333D01*
X108275428Y-144160571D01*
X108275428Y-144351047D01*
X108227809Y-144446285D01*
X108180190Y-144493904D01*
X108084952Y-144541523D01*
%TO.C,SW1*%
X142644761Y-140398666D02*
X142692380Y-140541523D01*
X142692380Y-140779619D01*
X142644761Y-140874857D01*
X142597142Y-140922476D01*
X142501904Y-140970095D01*
X142406666Y-140970095D01*
X142311428Y-140922476D01*
X142263809Y-140874857D01*
X142216190Y-140779619D01*
X142168571Y-140589142D01*
X142120952Y-140493904D01*
X142073333Y-140446285D01*
X141978095Y-140398666D01*
X141882857Y-140398666D01*
X141787619Y-140446285D01*
X141740000Y-140493904D01*
X141692380Y-140589142D01*
X141692380Y-140827238D01*
X141740000Y-140970095D01*
X141692380Y-141303428D02*
X142692380Y-141541523D01*
X141978095Y-141732000D01*
X142692380Y-141922476D01*
X141692380Y-142160571D01*
X142692380Y-143065333D02*
X142692380Y-142493904D01*
X142692380Y-142779619D02*
X141692380Y-142779619D01*
X141835238Y-142684380D01*
X141930476Y-142589142D01*
X141978095Y-142493904D01*
%TO.C,D1*%
X144268095Y-66492380D02*
X144268095Y-65492380D01*
X144030000Y-65492380D01*
X143887142Y-65540000D01*
X143791904Y-65635238D01*
X143744285Y-65730476D01*
X143696666Y-65920952D01*
X143696666Y-66063809D01*
X143744285Y-66254285D01*
X143791904Y-66349523D01*
X143887142Y-66444761D01*
X144030000Y-66492380D01*
X144268095Y-66492380D01*
X142744285Y-66492380D02*
X143315714Y-66492380D01*
X143030000Y-66492380D02*
X143030000Y-65492380D01*
X143125238Y-65635238D01*
X143220476Y-65730476D01*
X143315714Y-65778095D01*
%TO.C,D3*%
X123166095Y-68524380D02*
X123166095Y-67524380D01*
X122928000Y-67524380D01*
X122785142Y-67572000D01*
X122689904Y-67667238D01*
X122642285Y-67762476D01*
X122594666Y-67952952D01*
X122594666Y-68095809D01*
X122642285Y-68286285D01*
X122689904Y-68381523D01*
X122785142Y-68476761D01*
X122928000Y-68524380D01*
X123166095Y-68524380D01*
X122261333Y-67524380D02*
X121642285Y-67524380D01*
X121975619Y-67905333D01*
X121832761Y-67905333D01*
X121737523Y-67952952D01*
X121689904Y-68000571D01*
X121642285Y-68095809D01*
X121642285Y-68333904D01*
X121689904Y-68429142D01*
X121737523Y-68476761D01*
X121832761Y-68524380D01*
X122118476Y-68524380D01*
X122213714Y-68476761D01*
X122261333Y-68429142D01*
%TO.C,R6*%
X125016666Y-120502380D02*
X125350000Y-120026190D01*
X125588095Y-120502380D02*
X125588095Y-119502380D01*
X125207142Y-119502380D01*
X125111904Y-119550000D01*
X125064285Y-119597619D01*
X125016666Y-119692857D01*
X125016666Y-119835714D01*
X125064285Y-119930952D01*
X125111904Y-119978571D01*
X125207142Y-120026190D01*
X125588095Y-120026190D01*
X124159523Y-119502380D02*
X124350000Y-119502380D01*
X124445238Y-119550000D01*
X124492857Y-119597619D01*
X124588095Y-119740476D01*
X124635714Y-119930952D01*
X124635714Y-120311904D01*
X124588095Y-120407142D01*
X124540476Y-120454761D01*
X124445238Y-120502380D01*
X124254761Y-120502380D01*
X124159523Y-120454761D01*
X124111904Y-120407142D01*
X124064285Y-120311904D01*
X124064285Y-120073809D01*
X124111904Y-119978571D01*
X124159523Y-119930952D01*
X124254761Y-119883333D01*
X124445238Y-119883333D01*
X124540476Y-119930952D01*
X124588095Y-119978571D01*
X124635714Y-120073809D01*
%TO.C,U7*%
X146631904Y-75627380D02*
X146631904Y-76436904D01*
X146584285Y-76532142D01*
X146536666Y-76579761D01*
X146441428Y-76627380D01*
X146250952Y-76627380D01*
X146155714Y-76579761D01*
X146108095Y-76532142D01*
X146060476Y-76436904D01*
X146060476Y-75627380D01*
X145679523Y-75627380D02*
X145012857Y-75627380D01*
X145441428Y-76627380D01*
%TO.C,R7*%
X140966666Y-131522380D02*
X141300000Y-131046190D01*
X141538095Y-131522380D02*
X141538095Y-130522380D01*
X141157142Y-130522380D01*
X141061904Y-130570000D01*
X141014285Y-130617619D01*
X140966666Y-130712857D01*
X140966666Y-130855714D01*
X141014285Y-130950952D01*
X141061904Y-130998571D01*
X141157142Y-131046190D01*
X141538095Y-131046190D01*
X140633333Y-130522380D02*
X139966666Y-130522380D01*
X140395238Y-131522380D01*
%TO.C,U5*%
X123213904Y-96988380D02*
X123213904Y-97797904D01*
X123166285Y-97893142D01*
X123118666Y-97940761D01*
X123023428Y-97988380D01*
X122832952Y-97988380D01*
X122737714Y-97940761D01*
X122690095Y-97893142D01*
X122642476Y-97797904D01*
X122642476Y-96988380D01*
X121690095Y-96988380D02*
X122166285Y-96988380D01*
X122213904Y-97464571D01*
X122166285Y-97416952D01*
X122071047Y-97369333D01*
X121832952Y-97369333D01*
X121737714Y-97416952D01*
X121690095Y-97464571D01*
X121642476Y-97559809D01*
X121642476Y-97797904D01*
X121690095Y-97893142D01*
X121737714Y-97940761D01*
X121832952Y-97988380D01*
X122071047Y-97988380D01*
X122166285Y-97940761D01*
X122213904Y-97893142D01*
%TO.C,U1*%
X91400380Y-141478095D02*
X92209904Y-141478095D01*
X92305142Y-141525714D01*
X92352761Y-141573333D01*
X92400380Y-141668571D01*
X92400380Y-141859047D01*
X92352761Y-141954285D01*
X92305142Y-142001904D01*
X92209904Y-142049523D01*
X91400380Y-142049523D01*
X92400380Y-143049523D02*
X92400380Y-142478095D01*
X92400380Y-142763809D02*
X91400380Y-142763809D01*
X91543238Y-142668571D01*
X91638476Y-142573333D01*
X91686095Y-142478095D01*
D11*
%TO.C,C4*%
X134054113Y-137140000D02*
X134054113Y-137964000D01*
X135455113Y-133550000D02*
X135455113Y-135060000D01*
X133334113Y-135423000D02*
X133334113Y-136777000D01*
X134574113Y-137140000D02*
X134574113Y-138347000D01*
X134774113Y-137140000D02*
X134774113Y-138448000D01*
X133694113Y-137140000D02*
X133694113Y-137543000D01*
X134174113Y-134129000D02*
X134174113Y-135060000D01*
X138659888Y-134625000D02*
X138159888Y-134625000D01*
X134374113Y-133978000D02*
X134374113Y-135060000D01*
X134854113Y-133718000D02*
X134854113Y-135060000D01*
X134854113Y-137140000D02*
X134854113Y-138482000D01*
X133934113Y-134357000D02*
X133934113Y-135060000D01*
X135615113Y-137140000D02*
X135615113Y-138669000D01*
X134054113Y-134236000D02*
X134054113Y-135060000D01*
X135014113Y-133658000D02*
X135014113Y-135060000D01*
X135094113Y-137140000D02*
X135094113Y-138568000D01*
X133534113Y-134922000D02*
X133534113Y-137278000D01*
X133774113Y-134546000D02*
X133774113Y-135060000D01*
X135215113Y-133599000D02*
X135215113Y-135060000D01*
X134454113Y-133925000D02*
X134454113Y-135060000D01*
X133934113Y-137140000D02*
X133934113Y-137843000D01*
X133494113Y-135002000D02*
X133494113Y-137198000D01*
X134934113Y-137140000D02*
X134934113Y-138514000D01*
X134334113Y-137140000D02*
X134334113Y-138195000D01*
X135415113Y-133557000D02*
X135415113Y-135060000D01*
X134014113Y-137140000D02*
X134014113Y-137926000D01*
X134254113Y-134065000D02*
X134254113Y-135060000D01*
X134134113Y-134163000D02*
X134134113Y-135060000D01*
X135375113Y-137140000D02*
X135375113Y-138636000D01*
X135014113Y-137140000D02*
X135014113Y-138542000D01*
X133774113Y-137140000D02*
X133774113Y-137654000D01*
X135495113Y-137140000D02*
X135495113Y-138656000D01*
X134654113Y-137140000D02*
X134654113Y-138390000D01*
X134094113Y-134199000D02*
X134094113Y-135060000D01*
X134614113Y-137140000D02*
X134614113Y-138368000D01*
X134134113Y-137140000D02*
X134134113Y-138037000D01*
X134094113Y-137140000D02*
X134094113Y-138001000D01*
X134414113Y-137140000D02*
X134414113Y-138249000D01*
X134534113Y-137140000D02*
X134534113Y-138324000D01*
X133454113Y-135089000D02*
X133454113Y-137111000D01*
X134174113Y-137140000D02*
X134174113Y-138071000D01*
X133294113Y-135582000D02*
X133294113Y-136618000D01*
X135175113Y-133609000D02*
X135175113Y-135060000D01*
X135735113Y-133522000D02*
X135735113Y-138678000D01*
X135295113Y-137140000D02*
X135295113Y-138620000D01*
X135134113Y-137140000D02*
X135134113Y-138580000D01*
X133894113Y-134401000D02*
X133894113Y-135060000D01*
X134934113Y-133686000D02*
X134934113Y-135060000D01*
X135335113Y-137140000D02*
X135335113Y-138628000D01*
X133974113Y-137140000D02*
X133974113Y-137885000D01*
X134214113Y-137140000D02*
X134214113Y-138104000D01*
X135855113Y-133520000D02*
X135855113Y-138680000D01*
X133654113Y-134717000D02*
X133654113Y-135060000D01*
X135295113Y-133580000D02*
X135295113Y-135060000D01*
X134374113Y-137140000D02*
X134374113Y-138222000D01*
X133614113Y-134781000D02*
X133614113Y-135060000D01*
X133574113Y-137140000D02*
X133574113Y-137351000D01*
X133734113Y-137140000D02*
X133734113Y-137600000D01*
X134014113Y-134274000D02*
X134014113Y-135060000D01*
X133254113Y-135816000D02*
X133254113Y-136384000D01*
X134294113Y-134035000D02*
X134294113Y-135060000D01*
X134534113Y-133876000D02*
X134534113Y-135060000D01*
X134694113Y-133790000D02*
X134694113Y-135060000D01*
X134814113Y-137140000D02*
X134814113Y-138465000D01*
X135134113Y-133620000D02*
X135134113Y-135060000D01*
X134414113Y-133951000D02*
X134414113Y-135060000D01*
X135175113Y-137140000D02*
X135175113Y-138591000D01*
X135655113Y-133527000D02*
X135655113Y-138673000D01*
X135415113Y-137140000D02*
X135415113Y-138643000D01*
X134734113Y-137140000D02*
X134734113Y-138429000D01*
X135335113Y-133572000D02*
X135335113Y-135060000D01*
X135094113Y-133632000D02*
X135094113Y-135060000D01*
X135375113Y-133564000D02*
X135375113Y-135060000D01*
X134654113Y-133810000D02*
X134654113Y-135060000D01*
X135575113Y-133535000D02*
X135575113Y-135060000D01*
X135054113Y-137140000D02*
X135054113Y-138555000D01*
X135495113Y-133544000D02*
X135495113Y-135060000D01*
X134894113Y-133702000D02*
X134894113Y-135060000D01*
X133574113Y-134849000D02*
X133574113Y-135060000D01*
X134894113Y-137140000D02*
X134894113Y-138498000D01*
X133814113Y-137140000D02*
X133814113Y-137705000D01*
X135455113Y-137140000D02*
X135455113Y-138650000D01*
X134974113Y-137140000D02*
X134974113Y-138528000D01*
X135695113Y-133524000D02*
X135695113Y-138676000D01*
X135535113Y-137140000D02*
X135535113Y-138661000D01*
X133734113Y-134600000D02*
X133734113Y-135060000D01*
X134294113Y-137140000D02*
X134294113Y-138165000D01*
X134494113Y-133900000D02*
X134494113Y-135060000D01*
X135815113Y-133520000D02*
X135815113Y-138680000D01*
X133374113Y-135295000D02*
X133374113Y-136905000D01*
X134814113Y-133735000D02*
X134814113Y-135060000D01*
X135215113Y-137140000D02*
X135215113Y-138601000D01*
X135775113Y-133521000D02*
X135775113Y-138679000D01*
X134574113Y-133853000D02*
X134574113Y-135060000D01*
X133654113Y-137140000D02*
X133654113Y-137483000D01*
X134254113Y-137140000D02*
X134254113Y-138135000D01*
X133814113Y-134495000D02*
X133814113Y-135060000D01*
X134334113Y-134005000D02*
X134334113Y-135060000D01*
X134614113Y-133832000D02*
X134614113Y-135060000D01*
X135615113Y-133531000D02*
X135615113Y-135060000D01*
X133694113Y-134657000D02*
X133694113Y-135060000D01*
X134494113Y-137140000D02*
X134494113Y-138300000D01*
X133614113Y-137140000D02*
X133614113Y-137419000D01*
X135535113Y-133539000D02*
X135535113Y-135060000D01*
X133854113Y-137140000D02*
X133854113Y-137753000D01*
X134774113Y-133752000D02*
X134774113Y-135060000D01*
X135255113Y-137140000D02*
X135255113Y-138611000D01*
X135575113Y-137140000D02*
X135575113Y-138665000D01*
X134214113Y-134096000D02*
X134214113Y-135060000D01*
X133894113Y-137140000D02*
X133894113Y-137799000D01*
X134694113Y-137140000D02*
X134694113Y-138410000D01*
X133974113Y-134315000D02*
X133974113Y-135060000D01*
X134454113Y-137140000D02*
X134454113Y-138275000D01*
X138409888Y-134375000D02*
X138409888Y-134875000D01*
X135054113Y-133645000D02*
X135054113Y-135060000D01*
X135255113Y-133589000D02*
X135255113Y-135060000D01*
X133854113Y-134447000D02*
X133854113Y-135060000D01*
X134974113Y-133672000D02*
X134974113Y-135060000D01*
X134734113Y-133771000D02*
X134734113Y-135060000D01*
X133414113Y-135185000D02*
X133414113Y-137015000D01*
X138475113Y-136100000D02*
G75*
G03*
X138475113Y-136100000I-2620000J0D01*
G01*
%TO.C,D2*%
X135910000Y-67035000D02*
X135910000Y-70125000D01*
X135910000Y-67035170D02*
G75*
G03*
X130360000Y-68580462I-2560000J-1544830D01*
G01*
X130360000Y-68579538D02*
G75*
G03*
X135910000Y-70124830I2990000J-462D01*
G01*
X135850000Y-68580000D02*
G75*
G03*
X135850000Y-68580000I-2500000J0D01*
G01*
%TO.C,SW3*%
X90480000Y-124345000D02*
X90480000Y-131345000D01*
X97480000Y-124345000D02*
X90480000Y-124345000D01*
X97480000Y-131345000D02*
X97480000Y-124345000D01*
X90480000Y-131345000D02*
X97480000Y-131345000D01*
%TO.C,U8*%
X135128000Y-103632000D02*
X150368000Y-103632000D01*
X150368000Y-103632000D02*
X150368000Y-98552000D01*
X150368000Y-98552000D02*
X135128000Y-98552000D01*
X135128000Y-98552000D02*
X135128000Y-103632000D01*
%TO.C,C5*%
X150455113Y-132240000D02*
X150455113Y-133711000D01*
X148694113Y-130102000D02*
X148694113Y-132298000D01*
X150735113Y-132240000D02*
X150735113Y-133761000D01*
X149414113Y-129196000D02*
X149414113Y-130160000D01*
X150174113Y-132240000D02*
X150174113Y-133628000D01*
X150294113Y-128732000D02*
X150294113Y-130160000D01*
X153609888Y-129475000D02*
X153609888Y-129975000D01*
X149254113Y-132240000D02*
X149254113Y-133064000D01*
X149694113Y-132240000D02*
X149694113Y-133400000D01*
X151015113Y-128620000D02*
X151015113Y-133780000D01*
X150655113Y-132240000D02*
X150655113Y-133750000D01*
X150254113Y-132240000D02*
X150254113Y-133655000D01*
X149494113Y-129135000D02*
X149494113Y-130160000D01*
X149454113Y-129165000D02*
X149454113Y-130160000D01*
X150294113Y-132240000D02*
X150294113Y-133668000D01*
X149094113Y-129501000D02*
X149094113Y-130160000D01*
X149374113Y-132240000D02*
X149374113Y-133171000D01*
X150214113Y-128758000D02*
X150214113Y-130160000D01*
X149014113Y-132240000D02*
X149014113Y-132805000D01*
X150455113Y-128689000D02*
X150455113Y-130160000D01*
X149814113Y-132240000D02*
X149814113Y-133468000D01*
X149294113Y-129299000D02*
X149294113Y-130160000D01*
X153859888Y-129725000D02*
X153359888Y-129725000D01*
X150775113Y-132240000D02*
X150775113Y-133765000D01*
X150014113Y-128835000D02*
X150014113Y-130160000D01*
X149974113Y-128852000D02*
X149974113Y-130160000D01*
X149374113Y-129229000D02*
X149374113Y-130160000D01*
X148734113Y-130022000D02*
X148734113Y-132378000D01*
X150134113Y-128786000D02*
X150134113Y-130160000D01*
X149814113Y-128932000D02*
X149814113Y-130160000D01*
X148854113Y-129817000D02*
X148854113Y-130160000D01*
X149454113Y-132240000D02*
X149454113Y-133235000D01*
X149054113Y-132240000D02*
X149054113Y-132853000D01*
X149974113Y-132240000D02*
X149974113Y-133548000D01*
X149214113Y-129374000D02*
X149214113Y-130160000D01*
X149294113Y-132240000D02*
X149294113Y-133101000D01*
X148814113Y-129881000D02*
X148814113Y-130160000D01*
X150975113Y-128621000D02*
X150975113Y-133779000D01*
X149854113Y-132240000D02*
X149854113Y-133490000D01*
X149574113Y-129078000D02*
X149574113Y-130160000D01*
X148934113Y-129700000D02*
X148934113Y-130160000D01*
X150415113Y-132240000D02*
X150415113Y-133701000D01*
X150054113Y-132240000D02*
X150054113Y-133582000D01*
X150535113Y-132240000D02*
X150535113Y-133728000D01*
X149094113Y-132240000D02*
X149094113Y-132899000D01*
X150855113Y-128627000D02*
X150855113Y-133773000D01*
X149334113Y-129263000D02*
X149334113Y-130160000D01*
X151055113Y-128620000D02*
X151055113Y-133780000D01*
X149254113Y-129336000D02*
X149254113Y-130160000D01*
X150935113Y-128622000D02*
X150935113Y-133778000D01*
X150094113Y-132240000D02*
X150094113Y-133598000D01*
X150375113Y-132240000D02*
X150375113Y-133691000D01*
X150134113Y-132240000D02*
X150134113Y-133614000D01*
X149894113Y-128890000D02*
X149894113Y-130160000D01*
X149654113Y-129025000D02*
X149654113Y-130160000D01*
X148974113Y-129646000D02*
X148974113Y-130160000D01*
X148534113Y-130523000D02*
X148534113Y-131877000D01*
X148494113Y-130682000D02*
X148494113Y-131718000D01*
X149934113Y-128871000D02*
X149934113Y-130160000D01*
X149494113Y-132240000D02*
X149494113Y-133265000D01*
X150415113Y-128699000D02*
X150415113Y-130160000D01*
X148574113Y-130395000D02*
X148574113Y-132005000D01*
X150575113Y-128664000D02*
X150575113Y-130160000D01*
X148774113Y-132240000D02*
X148774113Y-132451000D01*
X150174113Y-128772000D02*
X150174113Y-130160000D01*
X150214113Y-132240000D02*
X150214113Y-133642000D01*
X149734113Y-128976000D02*
X149734113Y-130160000D01*
X149054113Y-129547000D02*
X149054113Y-130160000D01*
X149134113Y-132240000D02*
X149134113Y-132943000D01*
X148454113Y-130916000D02*
X148454113Y-131484000D01*
X149854113Y-128910000D02*
X149854113Y-130160000D01*
X149614113Y-129051000D02*
X149614113Y-130160000D01*
X150695113Y-132240000D02*
X150695113Y-133756000D01*
X149654113Y-132240000D02*
X149654113Y-133375000D01*
X149334113Y-132240000D02*
X149334113Y-133137000D01*
X150895113Y-128624000D02*
X150895113Y-133776000D01*
X148814113Y-132240000D02*
X148814113Y-132519000D01*
X149134113Y-129457000D02*
X149134113Y-130160000D01*
X150575113Y-132240000D02*
X150575113Y-133736000D01*
X150334113Y-128720000D02*
X150334113Y-130160000D01*
X149614113Y-132240000D02*
X149614113Y-133349000D01*
X150375113Y-128709000D02*
X150375113Y-130160000D01*
X148654113Y-130189000D02*
X148654113Y-132211000D01*
X150695113Y-128644000D02*
X150695113Y-130160000D01*
X150254113Y-128745000D02*
X150254113Y-130160000D01*
X149174113Y-132240000D02*
X149174113Y-132985000D01*
X150815113Y-132240000D02*
X150815113Y-133769000D01*
X148774113Y-129949000D02*
X148774113Y-130160000D01*
X150334113Y-132240000D02*
X150334113Y-133680000D01*
X149894113Y-132240000D02*
X149894113Y-133510000D01*
X149774113Y-128953000D02*
X149774113Y-130160000D01*
X150495113Y-132240000D02*
X150495113Y-133720000D01*
X148614113Y-130285000D02*
X148614113Y-132115000D01*
X148894113Y-132240000D02*
X148894113Y-132643000D01*
X149174113Y-129415000D02*
X149174113Y-130160000D01*
X148974113Y-132240000D02*
X148974113Y-132754000D01*
X150094113Y-128802000D02*
X150094113Y-130160000D01*
X149214113Y-132240000D02*
X149214113Y-133026000D01*
X149534113Y-129105000D02*
X149534113Y-130160000D01*
X149534113Y-132240000D02*
X149534113Y-133295000D01*
X150014113Y-132240000D02*
X150014113Y-133565000D01*
X150054113Y-128818000D02*
X150054113Y-130160000D01*
X149414113Y-132240000D02*
X149414113Y-133204000D01*
X150495113Y-128680000D02*
X150495113Y-130160000D01*
X149694113Y-129000000D02*
X149694113Y-130160000D01*
X148854113Y-132240000D02*
X148854113Y-132583000D01*
X149774113Y-132240000D02*
X149774113Y-133447000D01*
X150535113Y-128672000D02*
X150535113Y-130160000D01*
X149934113Y-132240000D02*
X149934113Y-133529000D01*
X150655113Y-128650000D02*
X150655113Y-130160000D01*
X148894113Y-129757000D02*
X148894113Y-130160000D01*
X150615113Y-132240000D02*
X150615113Y-133743000D01*
X149014113Y-129595000D02*
X149014113Y-130160000D01*
X149734113Y-132240000D02*
X149734113Y-133424000D01*
X148934113Y-132240000D02*
X148934113Y-132700000D01*
X149574113Y-132240000D02*
X149574113Y-133322000D01*
X150615113Y-128657000D02*
X150615113Y-130160000D01*
X150735113Y-128639000D02*
X150735113Y-130160000D01*
X150775113Y-128635000D02*
X150775113Y-130160000D01*
X150815113Y-128631000D02*
X150815113Y-130160000D01*
X153675113Y-131200000D02*
G75*
G03*
X153675113Y-131200000I-2620000J0D01*
G01*
%TO.C,U6*%
X83399200Y-74696200D02*
X83399200Y-76026200D01*
X83399200Y-77296200D02*
X83399200Y-125616200D01*
X88599200Y-74696200D02*
X88599200Y-125616200D01*
X88599200Y-74696200D02*
X85999200Y-74696200D01*
X89449200Y-153516200D02*
X89449200Y-67546200D01*
X88599200Y-125616200D02*
X83399200Y-125616200D01*
X85999200Y-74696200D02*
X85999200Y-77296200D01*
X89419200Y-153516200D02*
X34419200Y-153516200D01*
X85999200Y-77296200D02*
X83399200Y-77296200D01*
X85989200Y-71076200D02*
X85989200Y-129076200D01*
X84729200Y-74696200D02*
X83399200Y-74696200D01*
X89419200Y-67516200D02*
X34419200Y-67516200D01*
X34379200Y-67496200D02*
X34379200Y-153516200D01*
X87489200Y-71076200D02*
G75*
G03*
X87489200Y-71076200I-1500000J0D01*
G01*
X38489200Y-129076200D02*
G75*
G03*
X38489200Y-129076200I-1500000J0D01*
G01*
X38489200Y-71076200D02*
G75*
G03*
X38489200Y-71076200I-1500000J0D01*
G01*
X87489200Y-129076200D02*
G75*
G03*
X87489200Y-129076200I-1500000J0D01*
G01*
%TO.C,U4*%
X132000000Y-137045000D02*
X111650000Y-137045000D01*
X132000000Y-121845000D02*
X111650000Y-121845000D01*
X111650000Y-137045000D02*
X111650000Y-121845000D01*
X132000000Y-137045000D02*
X132000000Y-121845000D01*
%TO.C,SW2*%
X105335000Y-68107000D02*
X105335000Y-65447000D01*
X113075000Y-65447000D02*
X111745000Y-65447000D01*
X110475000Y-68107000D02*
X110475000Y-65447000D01*
X110475000Y-65447000D02*
X105335000Y-65447000D01*
X110475000Y-68107000D02*
X105335000Y-68107000D01*
X113075000Y-66777000D02*
X113075000Y-65447000D01*
%TO.C,BT1*%
X96068000Y-68147000D02*
X103068000Y-68147000D01*
X103068000Y-55647000D02*
X96068000Y-55647000D01*
X103068000Y-68147000D02*
X103068000Y-55647000D01*
X96068000Y-55647000D02*
X96068000Y-68147000D01*
%TO.C,Q1*%
X138300000Y-121750000D02*
X148300000Y-121750000D01*
X148300000Y-117250000D02*
X138300000Y-117250000D01*
X138300000Y-117250000D02*
X138300000Y-121750000D01*
X148300000Y-121750000D02*
X148300000Y-117250000D01*
%TO.C,BT2*%
X123134000Y-56155000D02*
X116134000Y-56155000D01*
X123134000Y-68655000D02*
X123134000Y-56155000D01*
X116134000Y-68655000D02*
X123134000Y-68655000D01*
X116134000Y-56155000D02*
X116134000Y-68655000D01*
%TO.C,S1*%
X151130000Y-116967000D02*
X165100000Y-116967000D01*
X165100000Y-116967000D02*
X165100000Y-122047000D01*
X165100000Y-122047000D02*
X151130000Y-122047000D01*
X151130000Y-122047000D02*
X151130000Y-116967000D01*
%TO.C,U3*%
X111590000Y-113008000D02*
X111590000Y-86008000D01*
X91590000Y-113008000D02*
X111590000Y-113008000D01*
X91590000Y-113008000D02*
X91590000Y-86008000D01*
X91590000Y-86008000D02*
X111590000Y-86008000D01*
%TO.C,U2*%
X118200000Y-85350000D02*
X118200000Y-71350000D01*
X118200000Y-71350000D02*
X95700000Y-71350000D01*
X95700000Y-85350000D02*
X118200000Y-85350000D01*
X95700000Y-71350000D02*
X95700000Y-85350000D01*
%TO.C,SW1*%
X133290000Y-143030000D02*
X134620000Y-143030000D01*
X135890000Y-140370000D02*
X141030000Y-140370000D01*
X135890000Y-140370000D02*
X135890000Y-143030000D01*
X141030000Y-140370000D02*
X141030000Y-143030000D01*
X133290000Y-141700000D02*
X133290000Y-143030000D01*
X135890000Y-143030000D02*
X141030000Y-143030000D01*
%TO.C,D1*%
X142519000Y-67035000D02*
X142519000Y-70125000D01*
X136969000Y-68579538D02*
G75*
G03*
X142519000Y-70124830I2990000J-462D01*
G01*
X142519000Y-67035170D02*
G75*
G03*
X136969000Y-68580462I-2560000J-1544830D01*
G01*
X142459000Y-68580000D02*
G75*
G03*
X142459000Y-68580000I-2500000J0D01*
G01*
%TO.C,D3*%
X129306000Y-67035000D02*
X129306000Y-70125000D01*
X123756000Y-68579538D02*
G75*
G03*
X129306000Y-70124830I2990000J-462D01*
G01*
X129306000Y-67035170D02*
G75*
G03*
X123756000Y-68580462I-2560000J-1544830D01*
G01*
X129246000Y-68580000D02*
G75*
G03*
X129246000Y-68580000I-2500000J0D01*
G01*
%TO.C,R6*%
X121580000Y-121420000D02*
X121580000Y-118680000D01*
X128120000Y-121420000D02*
X121580000Y-121420000D01*
X121580000Y-118680000D02*
X128120000Y-118680000D01*
X128890000Y-120050000D02*
X128120000Y-120050000D01*
X120810000Y-120050000D02*
X121580000Y-120050000D01*
X128120000Y-118680000D02*
X128120000Y-121420000D01*
%TO.C,U7*%
X134600000Y-92095000D02*
X154600000Y-92095000D01*
X154600000Y-91095000D02*
X154600000Y-92095000D01*
X154600000Y-74095000D02*
X134600000Y-74095000D01*
X154600000Y-75095000D02*
X154600000Y-91095000D01*
X134600000Y-74095000D02*
X134600000Y-92095000D01*
X154600000Y-74095000D02*
X154600000Y-92095000D01*
X137307107Y-90595000D02*
G75*
G03*
X137307107Y-90595000I-707107J0D01*
G01*
X153307107Y-75595000D02*
G75*
G03*
X153307107Y-75595000I-707107J0D01*
G01*
%TO.C,R7*%
X144840000Y-128700000D02*
X144070000Y-128700000D01*
X137530000Y-130070000D02*
X137530000Y-127330000D01*
X144070000Y-127330000D02*
X144070000Y-130070000D01*
X136760000Y-128700000D02*
X137530000Y-128700000D01*
X137530000Y-127330000D02*
X144070000Y-127330000D01*
X144070000Y-130070000D02*
X137530000Y-130070000D01*
%TO.C,U5*%
X134407000Y-116505000D02*
X112407000Y-116505000D01*
X112407000Y-92505000D02*
X134407000Y-92505000D01*
X134407000Y-92505000D02*
X134407000Y-116505000D01*
X112407000Y-116505000D02*
X112407000Y-92505000D01*
X115066000Y-95804000D02*
G75*
G03*
X115066000Y-95804000I-500000J0D01*
G01*
X115066000Y-94153000D02*
G75*
G03*
X115066000Y-94153000I-500000J0D01*
G01*
%TD*%
%LPC*%
D12*
%TO.C,R2*%
X109220000Y-125984000D03*
D13*
X99060000Y-125984000D03*
%TD*%
D14*
%TO.C,C3*%
X102616000Y-102297113D03*
D12*
X102616000Y-99797113D03*
%TD*%
%TO.C,R4*%
X132080000Y-78000000D03*
D13*
X121920000Y-78000000D03*
%TD*%
D12*
%TO.C,R3*%
X132080000Y-81000000D03*
D13*
X121920000Y-81000000D03*
%TD*%
D15*
%TO.C,C1*%
X147320000Y-110046888D03*
D12*
X147320000Y-112546888D03*
%TD*%
%TO.C,R8*%
X127000000Y-90424000D03*
D13*
X116840000Y-90424000D03*
%TD*%
D14*
%TO.C,C6*%
X124000000Y-108705113D03*
D12*
X124000000Y-106205113D03*
%TD*%
D16*
%TO.C,C7*%
X109030888Y-74168000D03*
D12*
X111530888Y-74168000D03*
%TD*%
%TO.C,R1*%
X99060000Y-129540000D03*
D13*
X109220000Y-129540000D03*
%TD*%
D15*
%TO.C,C2*%
X140716000Y-110046888D03*
D12*
X140716000Y-112546888D03*
%TD*%
%TO.C,R5*%
X132080000Y-75000000D03*
D13*
X121920000Y-75000000D03*
%TD*%
D17*
%TO.C,C4*%
X137105113Y-136100000D03*
D12*
X134605113Y-136100000D03*
%TD*%
D18*
%TO.C,D2*%
X134620000Y-68580000D03*
D19*
X132080000Y-68580000D03*
%TD*%
D20*
%TO.C,SW3*%
X91230000Y-127845000D03*
X96730000Y-127845000D03*
%TD*%
D21*
%TO.C,U8*%
X147828000Y-101092000D03*
X145288000Y-101092000D03*
X142748000Y-101092000D03*
X140208000Y-101092000D03*
X137668000Y-101092000D03*
%TD*%
D17*
%TO.C,C5*%
X152305113Y-131200000D03*
D12*
X149805113Y-131200000D03*
%TD*%
D22*
%TO.C,U6*%
X84729200Y-76026200D03*
D23*
X87269200Y-76026200D03*
X84729200Y-78566200D03*
X87269200Y-78566200D03*
X84729200Y-81106200D03*
X87269200Y-81106200D03*
X84729200Y-83646200D03*
X87269200Y-83646200D03*
X84729200Y-86186200D03*
X87269200Y-86186200D03*
X84729200Y-88726200D03*
X87269200Y-88726200D03*
X84729200Y-91266200D03*
X87269200Y-91266200D03*
X84729200Y-93806200D03*
X87269200Y-93806200D03*
X84729200Y-96346200D03*
X87269200Y-96346200D03*
X84729200Y-98886200D03*
X87269200Y-98886200D03*
X84729200Y-101426200D03*
X87269200Y-101426200D03*
X84729200Y-103966200D03*
X87269200Y-103966200D03*
X84729200Y-106506200D03*
X87269200Y-106506200D03*
X84729200Y-109046200D03*
X87269200Y-109046200D03*
X84729200Y-111586200D03*
X87269200Y-111586200D03*
X84729200Y-114126200D03*
X87269200Y-114126200D03*
X84729200Y-116666200D03*
X87269200Y-116666200D03*
X84729200Y-119206200D03*
X87269200Y-119206200D03*
X84729200Y-121746200D03*
X87269200Y-121746200D03*
X84729200Y-124286200D03*
X87269200Y-124286200D03*
%TD*%
D21*
%TO.C,U4*%
X130680000Y-135475000D03*
X128140000Y-135475000D03*
X125600000Y-135475000D03*
X123060000Y-135475000D03*
X120520000Y-135475000D03*
X117980000Y-135475000D03*
X115440000Y-135475000D03*
X112900000Y-135475000D03*
X130680000Y-123325000D03*
X128140000Y-123325000D03*
X125600000Y-123325000D03*
X123060000Y-123325000D03*
X120520000Y-123325000D03*
X117980000Y-123325000D03*
X115440000Y-123325000D03*
X112900000Y-123325000D03*
%TD*%
D24*
%TO.C,SW2*%
X111745000Y-66777000D03*
D23*
X109205000Y-66777000D03*
X106665000Y-66777000D03*
%TD*%
D21*
%TO.C,BT1*%
X98278000Y-66147000D03*
X100818000Y-66147000D03*
%TD*%
%TO.C,Q1*%
X145840000Y-119150000D03*
D25*
X143300000Y-119150000D03*
D21*
X140760000Y-119150000D03*
%TD*%
%TO.C,BT2*%
X118344000Y-66655000D03*
X120884000Y-66655000D03*
%TD*%
%TO.C,S1*%
X152400000Y-118237000D03*
D26*
X152400000Y-120777000D03*
%TD*%
D21*
%TO.C,U3*%
X92870000Y-105918000D03*
X92870000Y-103378000D03*
X92870000Y-100838000D03*
X92870000Y-98298000D03*
X92870000Y-95758000D03*
X92870000Y-93218000D03*
X110330000Y-103378000D03*
X110330000Y-100838000D03*
X110330000Y-98298000D03*
X110330000Y-95758000D03*
%TD*%
%TO.C,U2*%
X97700000Y-73350000D03*
X97700000Y-83350000D03*
X116200000Y-73350000D03*
X116200000Y-83350000D03*
%TD*%
%TO.C,U9*%
X113975000Y-141732000D03*
X116515000Y-141732000D03*
X119055000Y-141732000D03*
X121595000Y-141732000D03*
X124135000Y-141732000D03*
X126675000Y-141732000D03*
%TD*%
D27*
%TO.C,SW1*%
X134620000Y-141700000D03*
D23*
X137160000Y-141700000D03*
X139700000Y-141700000D03*
%TD*%
D18*
%TO.C,D1*%
X141229000Y-68580000D03*
D19*
X138689000Y-68580000D03*
%TD*%
D18*
%TO.C,D3*%
X128016000Y-68580000D03*
D19*
X125476000Y-68580000D03*
%TD*%
D12*
%TO.C,R6*%
X129930000Y-120050000D03*
D13*
X119770000Y-120050000D03*
%TD*%
D21*
%TO.C,U7*%
X153100000Y-80595000D03*
X153100000Y-83135000D03*
X153100000Y-85675000D03*
X153100000Y-88215000D03*
X153100000Y-90755000D03*
%TD*%
D12*
%TO.C,R7*%
X135720000Y-128700000D03*
D13*
X145880000Y-128700000D03*
%TD*%
D20*
%TO.C,U5*%
X133157000Y-99255000D03*
X133157000Y-100525000D03*
X133157000Y-101795000D03*
X133157000Y-103065000D03*
X133157000Y-104335000D03*
X133157000Y-105605000D03*
X133157000Y-106875000D03*
X133157000Y-108145000D03*
X133157000Y-109415000D03*
X133157000Y-110685000D03*
X133157000Y-111955000D03*
X133157000Y-113225000D03*
X133157000Y-114495000D03*
X113657000Y-114495000D03*
X113657000Y-113225000D03*
X113657000Y-111955000D03*
X113657000Y-110685000D03*
X113657000Y-109415000D03*
X113657000Y-108145000D03*
X113657000Y-106875000D03*
X113657000Y-105605000D03*
X113657000Y-104335000D03*
X113657000Y-103065000D03*
X113657000Y-101795000D03*
X113657000Y-100525000D03*
X113657000Y-99255000D03*
%TD*%
D21*
%TO.C,U1*%
X93980000Y-141732000D03*
X96520000Y-141732000D03*
X99060000Y-141732000D03*
X101600000Y-141732000D03*
X104140000Y-141732000D03*
X106680000Y-141732000D03*
%TD*%
M02*
